<svg xmlns="http://www.w3.org/2000/svg" viewBox="0 0 137.2 138.11"><path d="M41.66 63.61s-4.17 10.53-1.83 14.09 6.86-3.52 6.86-3.52-3.61 12.88 1.41 14.17 10.39-9.78 10.39-9.78S48.88 59 41.66 63.61zm54.18 0S100 74.14 97.67 77.7s-6.85-3.52-6.85-3.52 3.61 12.88-1.42 14.17S79 78.57 79 78.57 88.63 59 95.84 63.61z" fill="#3f2037"/><path d="M137.2 138.11H0s.12-1.54.52-3.8l.51-2.5a38.82 38.82 0 0 1 1.58-5.3A26.71 26.71 0 0 1 3.69 124a14.46 14.46 0 0 1 4.16-5.31 8.46 8.46 0 0 1 1.81-1l3.38-1.49c2.86-1.33 6.68-3.21 10.82-5.31l4.78-2.43.13-.07 10.27-5.31 3.09-1.61 1.69-.89.26-.13 8.47-4.48h0 .07l.1-.06 1.05.24c1.31.3 2.62.55 3.94.76a67.09 67.09 0 0 0 3.93.51 65.4 65.4 0 0 0 21.68-1.5h0l8 4.12 1.14.58 4.92 2.5 4.88 2.47 3.88 1.94 1.8.9 5 2.5 11.05 5.31a72.16 72.16 0 0 0 3.42 1.49 8.46 8.46 0 0 1 1.81 1 14.46 14.46 0 0 1 4.16 5.31 26.71 26.71 0 0 1 1.08 2.51 38.82 38.82 0 0 1 1.58 5.3c.2.9.37 1.74.51 2.5.53 2.22.65 3.76.65 3.76z" fill="#0075cf"/><g fill="#0056a8"><path d="M97.47 103.07H39l4.78-2.5h48.77zm15.6 7.81H23.86l4.78-2.43.13-.07H108l5.07 2.5zm16.28 7.81H7.85a8.46 8.46 0 0 1 1.81-1l3.38-1.49h111.08l3.42 1.49a8.46 8.46 0 0 1 1.81 1zm5.24 7.82H2.61A26.71 26.71 0 0 1 3.69 124h129.82a26.71 26.71 0 0 1 1.08 2.51z"/><path d="M136.68 134.31H.52l.51-2.5h135.14l.51 2.5zM91.41 100c-1.57 5.54-8.37 14.25-22.81 14.25-14.94 0-23.22-8.07-26.47-12.78l1.69-.89.26-.13 8.47-4.48h0 .07l.1-.06 1.05.24c1.31.3 2.62.55 3.94.76a67.09 67.09 0 0 0 3.93.51 65.4 65.4 0 0 0 21.68-1.5h0z"/></g><path d="M84.07 99.37s-2.69 8.46-15.06 8.46c-14.42 0-17.81-7.69-17.81-7.69A62.78 62.78 0 0 0 53.89 91h0a50 50 0 0 0 1.15-11.41l25.33-1c.24 2.15.62 4.67 1.05 7.21 1.15 6.73 2.65 13.57 2.65 13.57z" fill="#ffb8a1"/><path d="M81.43 85.78C77.5 88.51 68.92 92.58 53.9 91a50 50 0 0 0 1.15-11.41l25.33-1c.24 2.13.62 4.65 1.05 7.19z" fill="#3f2037"/><path d="M45.38,46.53s-7.84-10.67-13.94-4.35S37.1,70.49,47.77,65.7Z" fill="#ffb8a1"/><g fill="#ff8a8a"><path d="M41.64,59.15a.55.55,0,0,1-.54-.47c-1-7.42-6.92-12-7-12a.54.54,0,0,1-.11-.76.53.53,0,0,1,.76-.1,20.86,20.86,0,0,1,7.41,12.72.54.54,0,0,1-.47.61Z"/><path d="M40 53.82a.52.52 0 0 1-.45-.24c-.79-1.16-3.14-1.28-4-1.23a.55.55 0 0 1-.58-.5.55.55 0 0 1 .51-.58c.15 0 3.65-.2 4.94 1.71a.54.54 0 0 1-.14.75.55.55 0 0 1-.28.09z"/></g><path d="M93.87 46.53s7.84-10.67 13.94-4.35-5.66 28.31-16.34 23.52z" fill="#ffb8a1"/><g fill="#ff8a8a"><path d="M97.61 59.15h-.08a.54.54 0 0 1-.46-.61 20.87 20.87 0 0 1 7.4-12.72.53.53 0 0 1 .76.1.54.54 0 0 1-.1.76c-.06 0-6 4.61-7 12a.55.55 0 0 1-.52.47z"/><path d="M99.25 53.82a.55.55 0 0 1-.3-.09.55.55 0 0 1-.15-.73c1.3-1.91 4.8-1.72 5-1.71a.54.54 0 0 1-.07 1.08c-.84-.05-3.2.07-4 1.23a.52.52 0 0 1-.48.22z"/></g><path d="M75.87 15.43c-21.93-5.36-37.1 10.83-35.07 35.83 1.29 15.88 9.39 35.82 28.2 36.27 19.63.47 29.87-18.38 29.87-40.37 0-16.82-5.65-26.18-20-30.87-.95-.29-1.96-.61-3-.86z" fill="#ffb8a1"/><path d="M37.77,28.4s-4.34,10-2.78,11.84c1.34,1.53,3.38.48,3.38.48s-.84,11,3.81,11.39S46.25,32,46.25,32s7.69.21,6.24-6.16c0,0,19.93,3.79,35.3-.26,0,0-.64,6.14,4.55,7,0,0-3,18.64,2.49,20s5.23-11.45,5.23-11.45,2.42,0,3.36-.91C105.68,38,102,25.91,96,18,89.33,9.36,56.27-7.07,37.77,28.4Z" fill="#3f2037"/><path d="M103.1 26.07l-4.1-.76-.81-.13a161.42 161.42 0 0 0-10.87-1.31l-.79-.07a184.25 184.25 0 0 0-10.64-.56h-.78c-3.33-.07-6.87 0-10.57.12h-.77c-3.45.17-7 .44-10.69.86l-.79.09q-5.38.65-11 1.73l-.81.16a110.29 110.29 0 0 0-4.22.93S37.91 15.36 47.4 7.32c.52-.44 1.05-.87 1.62-1.28a30 30 0 0 1 9.38-4.56l.94-.26A37.22 37.22 0 0 1 66 .13h0l.79-.06C67.6 0 68.47 0 69.37 0c1.23 0 2.41 0 3.55.13l.8.07a38 38 0 0 1 6.66 1.18l1 .27h0a31.06 31.06 0 0 1 9.42 4.66h0a20 20 0 0 1 1.59 1.26h0a33.27 33.27 0 0 1 10.71 18.5z" fill="#ff4f4e"/><g fill="#c42c31"><path d="M49.06 6.06c-3.12 5.32-6.57 12.53-7.73 20a34.26 34.26 0 0 0-.41 4.16h-.77a33.27 33.27 0 0 1 .37-4c1-6.93 4-13.64 6.92-18.88.56-.44 1.05-.87 1.62-1.28zm10.28-4.84a93.77 93.77 0 0 0-6.26 23 56.87 56.87 0 0 0-.44 6h-.77a57.5 57.5 0 0 1 .42-5.87A94.26 94.26 0 0 1 58.4 1.48zM66.75.07C66.13 4.46 65 13.5 64.54 23.35c-.1 2.26-.17 4.56-.18 6.86h-.77c0-2.28.08-4.57.18-6.82A240.13 240.13 0 0 1 66 .13h0zm9.33 30.13h-.78l-.19-7c-.45-9.76-1.57-18.71-2.19-23.1l.8.07c.62 4.47 1.73 13.36 2.17 23a184.92 184.92 0 0 1 .19 7.03zm11.71 0H87a57.25 57.25 0 0 0-.49-6.41 94.14 94.14 0 0 0-6.13-22.41l1 .27h0a94.81 94.81 0 0 1 6 22.22 60.64 60.64 0 0 1 .41 6.33zm11.72 0h-.77a34.37 34.37 0 0 0-.55-5c-1.27-7-4.47-13.78-7.43-18.86a20 20 0 0 1 1.59 1.26h0A59 59 0 0 1 99 25.31a35 35 0 0 1 .51 4.89z"/><path d="M34.65 27.15S32.82 31 35 36.77c0 0 21.88-13.09 69.16-.85 0 0 3-3.35 0-9.41-.01 0-36.5-16-69.51.64z"/></g><path d="M70.58 65.34a7.72 7.72 0 0 1-3.08-.73.77.77 0 0 1-.5-.81l1.57-12a.772.772 0 0 1 1.53.2l-1.45 11.4a3.85 3.85 0 0 0 3.7-.14.774.774 0 1 1 .87 1.28 4.64 4.64 0 0 1-2.64.8zm-1.44 7.94a17.91 17.91 0 0 1-7.84-1.86.772.772 0 0 1 .75-1.35c.38.21 8.93 4.82 16.34-2a.77.77 0 1 1 1 1.13 14.78 14.78 0 0 1-10.25 4.08zm1.26 4.42a11.92 11.92 0 0 1-3.25-.46.77.77 0 1 1 .46-1.47h0s3.46 1 5.87-.32a.78.78 0 0 1 1.06.29.77.77 0 0 1-.3 1.05 7.77 7.77 0 0 1-3.84.91z" fill="#ff8a8a"/><path d="M54.08 43.36A20.86 20.86 0 0 1 60.53 41a2 2 0 0 0 1.64-2.67l-.09-.24A2 2 0 0 0 60 36.78c-2.11.22-5.84 1-8.28 3.39a2 2 0 0 0-.49 2h0a2 2 0 0 0 2.85 1.19zm31.98 0A20.86 20.86 0 0 0 79.61 41 2 2 0 0 1 78 38.34l.09-.24a2 2 0 0 1 2.1-1.32c2.11.22 5.84 1 8.28 3.39a2 2 0 0 1 .49 2h0a2 2 0 0 1-2.9 1.19z" fill="#3f2037"/><path d="M59.74 57.25c0 1.9-3.5 3.44-7.82 3.44s-7.82-1.54-7.82-3.44 3.5-3.43 7.82-3.43 7.82 1.54 7.82 3.43zm36.78 0c0 1.9-3.5 3.44-7.82 3.44s-7.82-1.54-7.82-3.44 3.5-3.43 7.82-3.43 7.82 1.54 7.82 3.43z" opacity=".5" fill="#ff8a8a"/><path d="M60.28 49.26c0 2.09-.73 3.8-1.72 3.82s-1.82-1.66-1.86-3.76.74-3.8 1.73-3.82 1.82 1.66 1.85 3.76zm18.72 0c0 2.09.74 3.8 1.72 3.82s1.82-1.66 1.86-3.76-.73-3.8-1.72-3.82S79 47.16 79 49.26z" fill="#3f2037"/></svg>