<svg xmlns="http://www.w3.org/2000/svg" viewBox="0 0 147.68 178.3"><path d="M94.07 119.7c-8.48-4.63-6.17-27-6.17-27l-12.7.82v-.82l-1.36.41-1.36-.41v.82l-12.7-.82s2.31 22.36-6.17 27S-5 126.64.41 178.3h146.87c5.4-51.66-44.72-53.98-53.21-58.6z" fill="#ffac9d"/><path d="M58,113.93q15.23-2.27,30.42-4.68a67.69,67.69,0,0,1-.52-16.54l-12.7.82v-.82l-1.36.41-1.36-.41v.82l-12.7-.82S61.12,105.7,58,113.93Z" fill="#cc887f"/><path d="M102.12 122.27c-7.54 4.4-17.57 7.08-28.58 7.08s-20.88-2.64-28.39-7C28.36 126.9-4 136.27.41 178.3h146.87c4.43-42.38-28.51-51.55-45.16-56.03z" fill="#7aa8ce"/><path d="M136.71 140c-6.75 3.24-14.2 4.33-21.59 6.63q-15.67 4.88-31.45 9.37l-63.45 17.4-18.12 4.9h145.18c1.89-18.07-3.03-30.09-10.57-38.3z" fill="#6f96bd"/><path d="M39.24 124.05C21.81 129.31-3.51 140.8.41 178.3h59.84zm68.76-.13l-9.52 54.38h48.8c3.95-37.81-21.82-49.18-39.28-54.38z" fill="#ffa65b"/><path d="M55 178.3h5.26l-21-54.25a85.63 85.63 0 0 0-14.39 5.64zm53-54.38l-9.52 54.38h4.39L128 132.71a76.42 76.42 0 0 0-20-8.79z" fill="#d68950"/><path d="M49 60c-2.5-7.75-8.42-6-9-5.77s-6.69 1-5.64 9 5.78 12.53 10.2 11.24c4.58-.7 6.96-6.7 4.44-14.47zm49.91 0c2.5-7.75 8.41-6 9-5.77s6.7 1 5.64 9-5.78 12.53-10.2 11.24c-4.58-.7-6.96-6.7-4.44-14.47z" fill="#cc887f"/><path d="M42.94 48.23c3.1-34 28.94-32.09 31.38-31.84 2.43-.25 28.27-2.16 31.37 31.84 3.12 34.19-12.11 56.52-31.37 55.29-19.26 1.23-34.49-21.1-31.38-55.29z" fill="#ffac9d"/><path d="M78.77 64.22a22.9 22.9 0 0 1 1.82 4.86l.56 2.51.38 2.54v.4l-.22.2-2.13 1.86L77 78.32c.52-.81 1.09-1.56 1.66-2.32l1.77-2.19-.17.6-.67-2.49-.5-2.52a23.44 23.44 0 0 1-.32-5.18z" fill="#cc887f"/><path d="M87.49,84.43c-6.15,6-16.57,5.65-24.46.32" fill="#fff"/><g fill="#352c38"><path d="M98.69 52.69a42.84 42.84 0 0 0-4.15-2.11 12.82 12.82 0 0 0-4-1.09 8.57 8.57 0 0 0-3.94.53 15.89 15.89 0 0 0-2 .87l-2.11 1.13a11.15 11.15 0 0 1 1.27-2.15 8.75 8.75 0 0 1 1.9-1.73 6 6 0 0 1 1.15-.67l1.27-.47a8.65 8.65 0 0 1 2.73-.2 9.24 9.24 0 0 1 4.84 2 9.73 9.73 0 0 1 3.04 3.89zm-32.19 0a42.84 42.84 0 0 0-4.15-2.11 12.82 12.82 0 0 0-4-1.09 8.57 8.57 0 0 0-3.94.53 15.89 15.89 0 0 0-2 .87l-2.11 1.13a11.15 11.15 0 0 1 1.27-2.15 9 9 0 0 1 1.9-1.73 6 6 0 0 1 1.15-.67l1.27-.47a8.65 8.65 0 0 1 2.73-.2 9.24 9.24 0 0 1 4.84 2 9.64 9.64 0 0 1 3.04 3.89zM65.48 65a10.14 10.14 0 0 0-1.91-3.86 4.45 4.45 0 0 0-3.49-1.61 4.89 4.89 0 0 0-1.95.29A3.76 3.76 0 0 0 56.6 61a8.29 8.29 0 0 0-1.39 4 6.33 6.33 0 0 1 .62-4.54 4.42 4.42 0 0 1 1.85-1.68 5.89 5.89 0 0 1 2.43-.45 5 5 0 0 1 4.2 2.24A7.26 7.26 0 0 1 65.48 65zm28.92-.46a10 10 0 0 0-1.9-3.86 4.46 4.46 0 0 0-3.5-1.61 5 5 0 0 0-2 .29 3.79 3.79 0 0 0-1.53 1.17 8.12 8.12 0 0 0-1.39 4 6.28 6.28 0 0 1 .68-4.53 4.37 4.37 0 0 1 1.85-1.68 5.83 5.83 0 0 1 2.39-.44 5 5 0 0 1 4.21 2.24 7.23 7.23 0 0 1 1.19 4.42z"/><path d="M27.87 53.32a18 18 0 0 0 4.59-4.91 13.73 13.73 0 0 0 .8-1.78l.47-2c.11-.71.19-1.36.21-2.05v-2.14c0-.72-.11-1.39-.17-2.09l-.05-.53v-.21-.21-1a40.09 40.09 0 0 1 .5-4.31 21.28 21.28 0 0 1 1.16-4.24 8 8 0 0 1 .44-1 6.88 6.88 0 0 1 .52-.9l.26-.41.38-.44.19-.23h.05 0l.08-.07.43-.41a14.67 14.67 0 0 1 2.46-1.7v-2.23a18 18 0 0 0-3.77 2.52l-.43.4-.11.1-.1.11-.07.08-.19.23-.39.45-.38.58a8.19 8.19 0 0 0-.56 1.07 11.33 11.33 0 0 0-.49 1.15 23.43 23.43 0 0 0-1.16 4.63 35.42 35.42 0 0 0-.4 4.53v1.11.28.34l.07.53.24 2.09c.16 2.61 0 5.23-1 7.25a18.29 18.29 0 0 1-4.08 4.89 18.4 18.4 0 0 0-3.24 4 11.13 11.13 0 0 0-.85 1.69 8.9 8.9 0 0 0-.49 1.31l-.35 1.1.45-1.06A15 15 0 0 1 24.45 57a17.64 17.64 0 0 1 3.42-3.68z" opacity=".3"/></g><path d="M91.87,19s11.33.33,15,14.33-.33,16.67-.33,28c0,0,0,7-1.67,9.34l-2.33-23S86.87,39.35,91.87,19Z" fill="#965450"/><path d="M71.42.26a17.91 17.91 0 0 0-6.07 0 12.89 12.89 0 0 0-4.23 1.55 14.36 14.36 0 0 0-3.55 3.05C55.5 7.25 54 10 52.07 12.42a18.59 18.59 0 0 1-6.9 5.84c-.7.35-1.36.59-2.15.9a23.61 23.61 0 0 0-2.28.95 18.38 18.38 0 0 0-4.25 2.77l-.43.4-.11.1-.1.11h0v.05l-.19.23-.39.45-.38.58a8.19 8.19 0 0 0-.7 1.2 11.33 11.33 0 0 0-.49 1.15 23.43 23.43 0 0 0-1.16 4.63 35.42 35.42 0 0 0-.4 4.53v1.11.28.34l.07.53.24 2.09c.16 2.61 0 5.23-1 7.25a18.29 18.29 0 0 1-4.08 4.89 18.4 18.4 0 0 0-3.24 4 11.13 11.13 0 0 0-.85 1.69 8.9 8.9 0 0 0-.49 1.31l-.35 1.1.45-1.06A15 15 0 0 1 24.45 57a17.64 17.64 0 0 1 3.42-3.64 18 18 0 0 0 4.59-4.91 13.73 13.73 0 0 0 .8-1.78l.47-2c.11-.71.19-1.36.21-2.05v-2.14c0-.72-.11-1.39-.17-2.09l-.05-.53v-.21-.25-1a40.09 40.09 0 0 1 .5-4.31 21.28 21.28 0 0 1 1.16-4.24 8 8 0 0 1 .44-1 6.88 6.88 0 0 1 .52-.9l.26-.41.38-.44.19-.23h.05 0l.08-.07.43-.41a15.85 15.85 0 0 1 2.82-1.91l-1.3.91-.62.5-.24.2-.77.78c-3.63 3.87-3.2 13.66-3.15 13.92C37.2 54 27.87 51 24.87 62s11.84 18.16 8.33 22c-6.66 7.33-10-2.33-10-2.33-1.33 5.66 4.67 14 12 13 6.94-1 14.47-6.38 11.87-17.7v.06l.78 1.85c.23.59.51 1.16.71 1.76l.54 1.8.36 1.83c0 .62.13 1.24.13 1.86a12.79 12.79 0 0 1-.11 1.87 9.23 9.23 0 0 1-.42 1.8 9.87 9.87 0 0 1-.68 1.73 11.59 11.59 0 0 1-2.21 3.06 14.18 14.18 0 0 1-3 2.4 18.47 18.47 0 0 1-3.58 1.64 17.4 17.4 0 0 0 3.82-1.18 14.71 14.71 0 0 0 3.45-2.14 12.92 12.92 0 0 0 2.72-3.12 11.68 11.68 0 0 0 .94-1.87 11 11 0 0 0 .62-2 14.63 14.63 0 0 0 .31-2.09v-2.11c0-.71-.17-1.39-.27-2.08s-.33-1.35-.49-2-.45-1.3-.68-2l-.66-1.84c-.1-.31-.23-.63-.32-.93l-.19-.85a8.08 8.08 0 0 1-.23-1.68 4.26 4.26 0 0 1 1-2.83c.67-.87 1.71-1.71 2.68-2.74a16.08 16.08 0 0 0 1.4-1.64 13.2 13.2 0 0 0 1.14-1.91l.48-1 .34-1c.1-.35.23-.7.31-1l.2-1.06.19-1.06.07-1 .13-2 .11-2a14.83 14.83 0 0 1 .15-1.94 26.88 26.88 0 0 1 .66-3.65 14.9 14.9 0 0 1 .5-1.8l.61-1.66.6-.86.75-.86c.29-.24.56-.5.85-.74s.62-.43 1-.61.68-.35 1-.49l1.11-.37 1.11-.38c.4-.07.81-.09 1.21-.14l2.67-.29 1.32-.16c.45-.06.91-.19 1.37-.28.9-.23 1.84-.37 2.71-.68l2.6-.92.33-.17A20.57 20.57 0 0 0 93.2 23C95.13 15 86.58 1.33 71.42.26zM52.18 62.33a11.62 11.62 0 0 1-2 2.9c-.81.93-1.84 1.79-2.77 3a6.66 6.66 0 0 0-.63 1 4.63 4.63 0 0 0-.47 1.14l-.18.6-.06.6a5.44 5.44 0 0 0-.05 1.2c0 .15 0 .31.05.46-1.83-7.68 3.23-7.23 6.6-12.08l-.12.39z" fill="#76413b"/><path d="M49 47.59a40.58 40.58 0 0 1-8.7-25l-.94.66-.62.5-.24.2-.77.78c-3.63 3.87-3.2 13.66-3.15 13.92C37.2 54 27.87 51 24.87 62s11.84 18.16 8.33 22c-6.66 7.33-10-2.33-10-2.33-1.33 5.66 4.67 14 12 13 6.94-1 14.47-6.38 11.87-17.7v.06l.78 1.85c.23.59.51 1.16.71 1.76l.54 1.8.36 1.83c0 .62.13 1.24.13 1.86a12.79 12.79 0 0 1-.11 1.87 9.23 9.23 0 0 1-.42 1.8 9.87 9.87 0 0 1-.68 1.73 11.59 11.59 0 0 1-2.21 3.06 14.18 14.18 0 0 1-3 2.4 18.47 18.47 0 0 1-3.58 1.64 17.4 17.4 0 0 0 3.82-1.18 14.71 14.71 0 0 0 3.45-2.14 12.92 12.92 0 0 0 2.72-3.12 11.68 11.68 0 0 0 .94-1.87 11 11 0 0 0 .62-2 14.63 14.63 0 0 0 .31-2.09v-2.11c0-.71-.17-1.39-.27-2.08s-.33-1.35-.49-2-.45-1.3-.68-2l-.66-1.84c-.1-.31-.23-.63-.32-.93l-.19-.85a8.08 8.08 0 0 1-.23-1.68 4.26 4.26 0 0 1 1-2.83c.67-.87 1.71-1.71 2.68-2.74a16.08 16.08 0 0 0 1.4-1.64 13.2 13.2 0 0 0 1.14-1.91l.48-1 .34-1c.1-.35.23-.7.31-1l.2-1.06.19-1.06.07-1 .13-2A53 53 0 0 1 49 47.59zm3.59 13.95l-.37.79a11.62 11.62 0 0 1-2 2.9c-.81.93-1.84 1.79-2.77 3a6.66 6.66 0 0 0-.63 1 4.63 4.63 0 0 0-.47 1.14l-.18.6-.06.6a5.44 5.44 0 0 0-.05 1.2c0 .15 0 .31.05.46-1.87-7.68 3.19-7.23 6.56-12.08z" fill="#352c38" opacity=".3"/></svg>