<svg xmlns="http://www.w3.org/2000/svg" xmlns:xlink="http://www.w3.org/1999/xlink" viewBox="0 0 166.32 167.38"><defs><clipPath id="A" transform="translate(8.58)"><path d="M97,107.93c-3.37-1.8-5.08-6.28-5.92-11.1a71.09,71.09,0,0,1-29.9.06c-.84,4.8-2.56,9.25-5.91,11-8.75,4.7-60.44,7-54.87,59.45H151.89C157.46,115,105.77,112.63,97,107.93Z" fill="none"/></clipPath><path id="B" d="M56.69 59.72s-8.11-1.81-9.33 5.11 3.62 8.43 3.62 8.43-7.23-8.13-12.34-2.41 3.31 10.54 3.31 10.54-9.37-5.12-11.14 1.2 5.77 10.23 5.77 10.23-8.13-.6-7.82 3 8.12.6 8.12.6-11.44 2.11-9.63 11.14 10.83 3.91 10.83 3.91-6.92 3.61-5.11 15 53.27-11.74 53.27-11.74l.9-31z"/><path id="C" d="M116.09 59.72s8.13-1.81 9.33 5.11-3.61 8.43-3.61 8.43 7.22-8.13 12.34-2.41-3.31 10.54-3.31 10.54 9.33-5.12 11.13 1.2-5.71 10.23-5.71 10.23 8.12-.6 7.82 3-8.13.6-8.13.6 11.44 2.11 9.64 11.14-10.84 3.91-10.84 3.91 6.92 3.61 5.12 15-53.29-11.68-53.29-11.68l-.91-31z"/></defs><g fill="#352c38"><use xlink:href="#B"/><use xlink:href="#C"/></g><g fill="#2a242d"><use xlink:href="#B"/><use xlink:href="#C"/></g><path d="M105.15 108.78c-8.48-4.63-6.17-27-6.17-27l-12.7.81v-.81l-1.36.41-1.34-.4v.81l-12.7-.81s2.31 22.36-6.17 27-58.6 6.94-53.2 58.6h146.85c5.4-51.67-44.72-53.99-53.21-58.61z" fill="#965450"/><path d="M69.08 103q15.23-2.27 30.42-4.68a67.69 67.69 0 0 1-.52-16.54l-12.7.81v-.81l-1.36.41-1.34-.4v.81l-12.7-.81s1.32 12.99-1.8 21.21z" fill="#76413b"/><path d="M105.58 107.93c-3.37-1.8-5.08-6.28-5.92-11.1a71.09 71.09 0 0 1-29.9.06c-.84 4.8-2.56 9.25-5.91 11-8.75 4.7-60.44 7-54.87 59.45h151.49c5.57-52.34-46.12-54.71-54.89-59.41z" fill="#fc6a5a"/><g clip-path="url(#A)" opacity=".9" fill="none" stroke="#fdedee" stroke-miterlimit="10" stroke-width="3.06"><path d="M0 103.86h166.32M0 111.97h166.32M0 120.08h166.32M0 128.19h166.32M0 136.3h166.32M0 144.41h166.32M0 152.52h166.32M0 160.62h166.32"/></g><path d="M13.92 167.38h146.55c1.83-17.19-2.51-29-9.47-37.27-45.99 11.26-91.25 25.35-137.08 37.27z" fill="#2a242d" opacity=".3"/><path d="M60.09 49.05c-2.5-7.75-8.42-6-9-5.77s-6.69 1-5.64 9 5.78 12.53 10.2 11.24c4.57-.67 6.93-6.67 4.44-14.47zm49.9 0c2.5-7.75 8.41-6 9-5.77s6.7 1 5.64 9-5.78 12.53-10.2 11.24c-4.58-.67-6.96-6.67-4.44-14.47z" fill="#76413b"/><path d="M54.02 37.3c3.1-34 28.94-32.08 31.38-31.83 2.43-.25 28.27-2.16 31.37 31.83 3.12 34.2-12.11 56.53-31.37 55.3-19.26 1.23-34.49-21.1-31.38-55.3z" fill="#965450"/><path d="M89.85 53.3a22.9 22.9 0 0 1 1.82 4.86l.56 2.51.38 2.54v.4l-.22.2-2.13 1.86L88 67.4l1.65-2.32 1.78-2.19-.17.6-.67-2.49-.5-2.52a23.44 23.44 0 0 1-.24-5.18z" fill="#76413b"/><path d="M98.58 73.51c-6.15 6-16.57 5.65-24.46.32" fill="#fff"/><g fill="#352c38"><path d="M109.77 41.77a42.84 42.84 0 0 0-4.19-2.11 12.82 12.82 0 0 0-4-1.09 8.44 8.44 0 0 0-3.94.53 14.58 14.58 0 0 0-2 .87l-2.11 1.13a11.15 11.15 0 0 1 1.3-2.1 8.75 8.75 0 0 1 1.9-1.73 6 6 0 0 1 1.15-.67l1.27-.47a8.65 8.65 0 0 1 2.73-.2 9.31 9.31 0 0 1 4.84 2 9.83 9.83 0 0 1 3.05 3.84zm-32.19 0a42.84 42.84 0 0 0-4.15-2.11 12.82 12.82 0 0 0-4-1.09 8.44 8.44 0 0 0-3.94.53 14.58 14.58 0 0 0-2 .87l-2.11 1.13a11.15 11.15 0 0 1 1.26-2.1 9 9 0 0 1 1.94-1.78 6 6 0 0 1 1.15-.67l1.27-.47a8.65 8.65 0 0 1 2.73-.2 9.31 9.31 0 0 1 4.84 2 9.74 9.74 0 0 1 3.01 3.89zm-1 12.32a10.14 10.14 0 0 0-1.91-3.86 4.42 4.42 0 0 0-3.49-1.61 4.89 4.89 0 0 0-1.95.29 3.76 3.76 0 0 0-1.53 1.16 8.29 8.29 0 0 0-1.39 4 6.33 6.33 0 0 1 .62-4.54 4.42 4.42 0 0 1 1.85-1.68 5.89 5.89 0 0 1 2.43-.45 5 5 0 0 1 4.2 2.24 7.26 7.26 0 0 1 1.17 4.45zm28.9-.47a10 10 0 0 0-1.9-3.86 4.46 4.46 0 0 0-3.49-1.61 5 5 0 0 0-2 .29 3.79 3.79 0 0 0-1.51 1.17 8.12 8.12 0 0 0-1.39 4 6.28 6.28 0 0 1 .62-4.54 4.37 4.37 0 0 1 1.85-1.68 5.84 5.84 0 0 1 2.45-.39 5.08 5.08 0 0 1 4.21 2.25 7.21 7.21 0 0 1 1.16 4.37zM86.4 5.47s1.59 20.84-30 29.57a66.8 66.8 0 0 1-1.82 20.46s-10.22-14.74-5.41-32.2S78.38-8.14 86.4 5.47z"/><path d="M83.91 5.47s-.6 20.84 31 29.57c0 0-1.5 13.24 1.21 23.17 0 0 10.83-17.45 6-34.91S91.92-8.14 83.91 5.47z"/></g><path d="M61.17 33.53A40.37 40.37 0 0 1 49.7 21.61l-.53 1.69c-4.81 17.46 5.41 32.2 5.41 32.2A66.8 66.8 0 0 0 56.39 35c1.69-.43 3.27-.94 4.78-1.47z" fill="#2a242d"/></svg>