<svg xmlns="http://www.w3.org/2000/svg" viewBox="0 0 148.72 179.52"><path d="M95.09 120.92c-8.48-4.63-6.17-27-6.17-27l-12.7.82v-.81l-1.36.41-1.36-.41v.81l-12.7-.82s2.31 22.37-6.17 27-58.63 6.94-53.21 58.6h146.87c5.4-51.66-44.72-53.98-53.2-58.6z" fill="#ffac9d"/><path d="M59 115.15q15.23-2.28 30.42-4.68a68.07 68.07 0 0 1-.51-16.55l-12.7.82v-.81l-1.36.41-1.36-.41v.81l-12.7-.82s1.34 13-1.79 21.23z" fill="#cc887f"/><path d="M97.73 120.52c-4.24-2.31-5.8-9-6.3-15.18-3.72 1.41-11.18 2.23-16 2.23-5.75 0-13-1.18-17.12-3.15-.42 6.41-1.92 13.67-6.36 16.1-8.54 4.66-57 7-51.57 59h147.91c5.44-52.01-42.02-54.34-50.56-59z" fill="#d68950"/><path d="M74.79 132.57c11.66 0 22.12-3.88 29.26-10a32.6 32.6 0 0 1-5.89-2c-4.24-2.31-5.8-9-6.3-15.18-3.73 1.41-11.18 2.23-16 2.23-5.75 0-13-1.18-17.12-3.15-.42 6.41-1.92 13.67-6.36 16.1a38.19 38.19 0 0 1-6.67 2.24c7.18 5.97 17.54 9.76 29.08 9.76z" fill="#ffa65b"/><g fill="none" stroke="#765e69" stroke-miterlimit="10"><g stroke-width="1.83"><path d="M20.72 173.36l8.25-7.79 7.79 7.79m76.76-.31l9.41-7.48 7.79 7.79"/><path d="M98 173.1l8.88-7.53 7.8 7.79"/><path d="M83.05 173.36l8.25-7.79 7.79 7.79"/><path d="M66.68 173.2l9.04-7.63 8.43 7.58"/><path d="M51.88 173.36l8.25-7.79 7.8 7.79"/><path d="M35.65 173.2l8.9-7.63 8.33 7.48"/></g><path d="M20.72 165.69l8.25-7.79 7.79 7.79m76.76-.3l9.41-7.49 7.79 7.79"/><path d="M98 165.44l8.88-7.54 7.8 7.79"/><path d="M83.05 165.69l8.25-7.79 7.79 7.79"/><path d="M66.68 165.53l9.04-7.63 8.43 7.58"/><path d="M51.88 165.69l8.25-7.79 7.8 7.79"/><path d="M35.65 165.53l8.9-7.63 8.33 7.49"/></g><path d="M23.22 160.82A105.17 105.17 0 0 0 19.81 133c-12 7.79-22 21.33-19.39 46.53H21.8a118.89 118.89 0 0 0 1.42-18.71zm105.52-28.24a104.85 104.85 0 0 0-3.52 28.24 118.89 118.89 0 0 0 1.42 18.7h21.65c2.71-25.66-7.51-39.22-19.55-46.94z" fill="#ffa65b"/><path d="M50 61.19c-2.5-7.75-8.42-6-9-5.77s-6.7 1-5.64 9S41.19 77 45.61 75.71C50.16 75 52.53 69 50 61.19zm49.92 0c2.5-7.75 8.42-6 9-5.77s6.7 1 5.64 9-5.8 12.58-10.22 11.29C99.79 75 97.41 69 99.92 61.19z" fill="#cc887f"/><path d="M44,49.44c3.09-34,28.94-32.08,31.37-31.83,2.44-.25,28.28-2.16,31.38,31.83,3.11,34.2-12.12,56.53-31.38,55.3C56.07,106,40.84,83.64,44,49.44Z" fill="#ffac9d"/><path d="M42.72 25.57s-7 4.5-2 20l3 17.5 2.5.5s-1-26.5 7.5-32.5-11-5.5-11-5.5z" fill="#d35450"/><path d="M96.22 28.07s-33.5 19.5-51.5 4 1-23.5 8.5-22.5c0 0-2.5-8.5 7.5-9.5s8 9 23 9 22.5 1 21 13.5c0 0 7.5-4.5 10 4s-7 36.5-7 36.5l-1 4.5h-2.5v-24s-9.5 3-8-15.5z" fill="#fc6a5a"/><path d="M114.72 26.57c-2.5-8.5-10-4-10-4 .86-7.2-1.26-10.58-6.08-12.15a47.05 47.05 0 0 1-7.48 20.24c3.14-1.48 5.06-2.59 5.06-2.59-1.5 18.5 8 15.5 8 15.5v24h2.5l1-4.5s9.5-28 7-36.5z" fill="#d35450"/><path d="M79.79 53.43l1.06 4.7.77 4.74.3 2.38.26 2.38.38 4.78v.43l-.31.19-3.09 1.83L76 76.54l2.71-2.37 2.82-2.23-.28.62-.68-4.75-.27-2.38-.22-2.39-.29-4.79v-4.82z" fill="#cc887f"/><path d="M88.51,82.64c-6.16,6-16.58,5.65-24.47.32" fill="#fff"/><path d="M99.7 50.91l-.7-.41-.82-.45-1-.56-1.24-.57-.66-.29-.7-.26c-.46-.2-1-.28-1.44-.45a10.57 10.57 0 0 0-1.48-.22l-.73-.06h-.73a8.69 8.69 0 0 0-1.43.23 12.25 12.25 0 0 0-1.34.42l-.33.1-.3.15-.59.28a8.56 8.56 0 0 0-1.05.52l-.81.46-.77.38s.12-.28.39-.76l.5-.85a4.81 4.81 0 0 1 .82-1 6.52 6.52 0 0 1 1.14-1.06 9.27 9.27 0 0 1 1.55-.9l.91-.34a3.12 3.12 0 0 1 1-.22l1-.13c.33-.03.68 0 1 0a9.79 9.79 0 0 1 2 .4l.9.38a5 5 0 0 1 .83.43l.76.47.66.52a10.23 10.23 0 0 1 .96 1.16 9.54 9.54 0 0 1 1.3 1.85 4.32 4.32 0 0 1 .4.78zm-32.19 0l-.74-.41-.77-.45-1-.56-1.24-.57-.76-.29-.7-.26c-.46-.2-1-.28-1.44-.45a10.57 10.57 0 0 0-1.48-.22l-.73-.06h-.73a8.41 8.41 0 0 0-1.42.23 11.77 11.77 0 0 0-1.35.42l-.33.1-.3.15-.58.28a7.9 7.9 0 0 0-1 .52l-.82.46-.76.38a6.86 6.86 0 0 1 .38-.76l.5-.85a4.81 4.81 0 0 1 .82-1 6.6 6.6 0 0 1 1.15-1.06 8.78 8.78 0 0 1 1.54-.9l.91-.34a3.25 3.25 0 0 1 1-.22l1-.13c.32-.03.68 0 1 0a9.79 9.79 0 0 1 2 .4l.9.38a5 5 0 0 1 .83.43l.76.47.66.52a10.4 10.4 0 0 1 2.41 2.92 4.63 4.63 0 0 1 .29.87z" fill="#352c38"/><g stroke="#765e69" stroke-width="1.43"><path d="M41.32,54.5,50,61.19l21.85.68s5.63-7.89,10.33,0h22.52l6.77-6.34" fill="none" stroke-miterlimit="10"/><g fill="#a9c7db"><circle cx="60.61" cy="61.87" r="11.26"/><circle cx="93.46" cy="61.87" r="11.26"/></g></g><path d="M66.49 63.23s-.07-.28-.23-.74a11.87 11.87 0 0 0-.78-1.83 6.21 6.21 0 0 0-1.67-2 4.07 4.07 0 0 0-1.26-.66 2.83 2.83 0 0 0-.71-.17 3.74 3.74 0 0 0-.75-.06 5.5 5.5 0 0 0-.72 0 5.36 5.36 0 0 0-.79.14 3.51 3.51 0 0 0-1.22.58 4 4 0 0 0-.92.95 7.47 7.47 0 0 0-.58 1.12 9.55 9.55 0 0 0-.52 1.9 7.41 7.41 0 0 0-.11.77 4.92 4.92 0 0 1-.13-.78 6.8 6.8 0 0 1 .1-2.09 5.87 5.87 0 0 1 .47-1.36 4.34 4.34 0 0 1 2.67-2.21 5.44 5.44 0 0 1 .84-.17 6.18 6.18 0 0 1 .94 0 4.05 4.05 0 0 1 .92.1 3.45 3.45 0 0 1 .89.24 3.15 3.15 0 0 1 .83.39 4.23 4.23 0 0 1 .71.53 5.83 5.83 0 0 1 1.64 2.58 7.8 7.8 0 0 1 .39 2 6.13 6.13 0 0 1-.01.77zm28.93-.47s-.07-.28-.23-.74a12.44 12.44 0 0 0-.78-1.82 6.3 6.3 0 0 0-1.68-2 4 4 0 0 0-1.25-.64 2.85 2.85 0 0 0-.71-.18 3.12 3.12 0 0 0-.75-.05 5.78 5.78 0 0 0-.73 0 5.21 5.21 0 0 0-.78.14 3.6 3.6 0 0 0-1.22.58 4.35 4.35 0 0 0-.92.95 6 6 0 0 0-.58 1.12 10.74 10.74 0 0 0-.53 1.88l-.11.76A5.63 5.63 0 0 1 85 62a6.8 6.8 0 0 1 .1-2.09 5 5 0 0 1 .47-1.37 4.33 4.33 0 0 1 2.66-2.22 7.82 7.82 0 0 1 .84-.17 8.08 8.08 0 0 1 1 0 4.18 4.18 0 0 1 .92.1 3.56 3.56 0 0 1 .89.24 3.18 3.18 0 0 1 .83.4 3.75 3.75 0 0 1 .71.53A5.83 5.83 0 0 1 95 59.93a8.13 8.13 0 0 1 .38 2 5.21 5.21 0 0 1 .04.83z" fill="#352c38"/></svg>