<svg xmlns="http://www.w3.org/2000/svg" viewBox="0 0 150.35 184.49"><path d="M95.4 125.89c-8.48-4.63-6.16-27-6.16-27l-12.71.82v-.81l-1.36.4-1.36-.4v.81l-12.7-.82s2.31 22.37-6.17 27-58.6 6.94-53.2 58.6h146.87c5.39-51.66-44.72-53.98-53.21-58.6z" fill="#965450"/><path d="M59.33 120.12q15.23-2.28 30.42-4.68a67.51 67.51 0 0 1-.51-16.55l-12.71.82v-.81l-1.36.4-1.36-.4v.81l-12.7-.82s1.34 13-1.78 21.23z" fill="#76413b"/><path d="M106.08 128c-4.56 11.88-16.67 20.38-30.91 20.38S48.82 139.9 44.27 128C26.8 132.79-3.91 143 .41 184.47h149.52c4.33-41.4-26.38-51.66-43.85-56.47z" fill="#fdedee"/><path d="M138 144.25c-18.74 12.13-41.35 16.88-62.37 23.58-19.71 6.27-39.63 11.71-59.74 16.66h134c2.11-19.33-3.55-31.87-11.89-40.24z" fill="#352c38" opacity=".1"/><path d="M109 128.86v55.63h40.9c4.1-39.17-23.12-50.49-40.9-55.63zm-68 .08c-17.72 5.2-44.66 16.59-40.59 55.55H41z" fill="#6f96bd"/><path d="M41.52 128.94v55.55s-20.5-35-19.5-47 17.5-12.66 19.5-8.55zm66.48 0v55.55s20.5-35 19.5-47-17.5-12.66-19.5-8.55z" fill="#88bbe5"/><path d="M50.34 66.16c-2.5-7.76-8.42-6-9-5.77s-6.7 1-5.65 9S41.5 82 45.92 80.68c4.55-.68 6.93-6.68 4.42-14.52zm49.9 0c2.5-7.76 8.42-6 9-5.77s6.7 1 5.64 9-5.81 12.61-10.23 11.29c-4.55-.68-6.93-6.68-4.41-14.52z" fill="#76413b"/><path d="M44.27 54.41c3.1-34 28.94-32.08 31.38-31.83 2.44-.25 28.28-2.16 31.37 31.83 3.12 34.2-12.11 56.53-31.37 55.3-19.26 1.23-34.49-21.1-31.38-55.3z" fill="#965450"/><path d="M80.1 58.4l1.06 4.7.77 4.74.31 2.38.26 2.38.37 4.78v.43l-.31.19q-1.53.94-3.09 1.83l-3.2 1.68 2.72-2.38 2.82-2.22-.29.62-.67-4.75-.27-2.38-.23-2.39-.28-4.79.03-4.82z" fill="#76413b"/><path d="M88.82,87.61c-6.15,6-16.57,5.65-24.46.32" fill="#fff"/><path d="M100 55.88l-.74-.41-.81-.47-1-.56-1.23-.57-.67-.29-.69-.26c-.46-.2-1-.28-1.44-.45a11 11 0 0 0-1.48-.22l-.74-.06h-.73a9.75 9.75 0 0 0-1.42.22 14 14 0 0 0-1.34.43l-.33.1-.3.15-.59.27a10.24 10.24 0 0 0-1 .53l-.81.46-.77.38s.12-.28.38-.76l.51-.85a4.74 4.74 0 0 1 .81-1 7 7 0 0 1 1.15-1.06 9.19 9.19 0 0 1 1.54-.91l.91-.33a3.25 3.25 0 0 1 1-.22c.33 0 .67-.1 1-.13s.69 0 1 0a10.07 10.07 0 0 1 2 .4c.3.11.6.25.89.38a4.3 4.3 0 0 1 .83.42l.76.48.67.52a12.51 12.51 0 0 1 1.1 1.07 9.54 9.54 0 0 1 1.3 1.85 5.46 5.46 0 0 1 .24.89zm-32.17 0l-.74-.41-.83-.47-1.05-.56-1.23-.57-.67-.29-.69-.26c-.46-.2-1-.28-1.44-.45a10.79 10.79 0 0 0-1.48-.22l-.7-.04h-.72a9.67 9.67 0 0 0-1.43.22 14 14 0 0 0-1.34.43l-.33.1-.3.15-.59.27a10.24 10.24 0 0 0-1 .53l-.81.46-.77.38s.12-.28.38-.76l.51-.85a4.74 4.74 0 0 1 .81-1 7 7 0 0 1 1.15-1.06 8.91 8.91 0 0 1 1.44-.86l.91-.33a3.12 3.12 0 0 1 1-.22c.33 0 .67-.1 1-.13s.69 0 1 0a10.07 10.07 0 0 1 2 .4c.31.11.6.25.89.38a4.3 4.3 0 0 1 .83.42l.76.48.67.52a11.26 11.26 0 0 1 1.1 1.07 9.54 9.54 0 0 1 1.3 1.85 5.46 5.46 0 0 1 .37.82zM66.81 68.2s-.07-.28-.23-.74a13 13 0 0 0-.78-1.83 6.37 6.37 0 0 0-1.68-2 4 4 0 0 0-1.25-.63 2.83 2.83 0 0 0-.71-.17 3.74 3.74 0 0 0-.75-.06 5.66 5.66 0 0 0-.73 0 4.19 4.19 0 0 0-.78.14 3.58 3.58 0 0 0-1.22.57 4.19 4.19 0 0 0-.92 1 6 6 0 0 0-.58 1.12 10.45 10.45 0 0 0-.53 1.9l-.11.77a6 6 0 0 1-.12-.78 6.8 6.8 0 0 1 .1-2.09A5.07 5.07 0 0 1 57 64a4.12 4.12 0 0 1 1-1.32 4 4 0 0 1 1.63-.89 6 6 0 0 1 .84-.17 5.27 5.27 0 0 1 .95 0 4.16 4.16 0 0 1 .92.09 4.08 4.08 0 0 1 .89.25 3.15 3.15 0 0 1 .83.39 4.23 4.23 0 0 1 .71.53 6 6 0 0 1 1.64 2.57 8.28 8.28 0 0 1 .38 2 5.38 5.38 0 0 1 .02.75zm28.92-.47l-.22-.74a11.62 11.62 0 0 0-.79-1.82 6.14 6.14 0 0 0-1.67-2 4.05 4.05 0 0 0-1.26-.64 2.85 2.85 0 0 0-.71-.18 3 3 0 0 0-.74-.05 4.34 4.34 0 0 0-.73 0 5.36 5.36 0 0 0-.79.14 3.56 3.56 0 0 0-1.21.58 4 4 0 0 0-.93.95 7.47 7.47 0 0 0-.58 1.12 10.57 10.57 0 0 0-.52 1.91 7.48 7.48 0 0 0-.11.76 4.9 4.9 0 0 1-.13-.77 7.48 7.48 0 0 1 .1-2.09 5.93 5.93 0 0 1 .47-1.38 4.39 4.39 0 0 1 1-1.32 4.27 4.27 0 0 1 1.64-.89 5.44 5.44 0 0 1 .84-.17 7.81 7.81 0 0 1 .94 0 4.05 4.05 0 0 1 .92.1 3.52 3.52 0 0 1 .9.24 3.12 3.12 0 0 1 .82.4 4.72 4.72 0 0 1 .72.52 5.89 5.89 0 0 1 1.63 2.58 7.79 7.79 0 0 1 .39 2 5.92 5.92 0 0 1 .02.75z" fill="#352c38"/><path d="M108.37 28.21c-1.75-7-5.91-8.74-7.9-9.18C99.32 1.06 51.32-2.23 50.7 1.21c-.67 3.66 17 9.66 17 9.66s-31.67-8.33-30-1c1.35 6 14.14 5.32 18.9 4.87-6.69.83-29.53 4.5-19.23 14.8a16.63 16.63 0 0 0 2.72 2.19c-1 12.77 2.83 42.81 2.83 42.81h2.66l-1-20.67c5.17-1 7.53-13.27 8.33-18.73 8.75.12 17.54-2.85 20.8-4.08-2 .92-5.06 3-1.68 6.15s15.84-.7 22-3c1.14 4.86 4.82 18.52 10.29 19.61l-1 20.67H106s4.7-36.95 2.37-46.28z" fill="#fddec0"/><path d="M108.37 28.21c-1.75-7-5.91-8.74-7.9-9.18-.21-3.29-2-6.08-4.75-8.43C94.22 22.78 85.31 33.14 74 38.15c4.87 1.18 14.75-2 20.09-3.89 1.14 4.86 4.82 18.52 10.29 19.61l-1 20.67H106s4.7-37 2.37-46.33z" fill="#d3b9a3"/></svg>