<svg xmlns="http://www.w3.org/2000/svg" viewBox="0 0 150.72 178.66"><defs><clipPath id="A" transform="translate(.93)"><path d="M100.55 116.56c-5.94 6.1-15.22 10-25.66 10s-19.72-3.93-25.65-10c-15.5 4.32-53.61 11.92-48.83 57.65h149c4.74-45.73-33.36-53.33-48.86-57.65z" fill="none"/></clipPath></defs><path d="M96.07 115.61c-8.48-4.63-6.17-27-6.17-27l-12.7.82v-.82l-1.36.39-1.36-.41v.82l-12.7-.82s2.31 22.36-6.17 27-58.6 6.94-53.2 58.6h146.87c5.4-51.64-44.72-53.95-53.21-58.58z" fill="#ffac9d"/><path d="M60 109.84q15.23-2.27 30.42-4.68a67.69 67.69 0 0 1-.49-16.54l-12.7.82v-.82l-1.39.38-1.36-.41v.82l-12.7-.82s1.34 13.02-1.78 21.25z" fill="#cc887f"/><path d="M101.48 116.56c-5.94 6.1-15.22 10-25.66 10s-19.72-3.93-25.65-10c-15.5 4.32-53.61 11.92-48.83 57.65h149c4.74-45.73-33.36-53.33-48.86-57.65z" fill="#6f96bd"/><g clip-path="url(#A)" fill="#352c38"><path d="M120.66 120.57l3.45 5.18.49.74.33-.49-6.56 1.38-.94.2.51.38 3.11-6.57.44-.92c.22-.46-.67-.5-.84-.12l-3.11 6.56-.44.93c-.15.32.28.42.5.38l6.56-1.38.94-.2c.21 0 .46-.29.31-.52l-3.48-5.21-.49-.73c-.22-.35-1.04 0-.78.39zm-14.64-.03l3.45 5.18.49.73.36-.34-6.56 1.38-.93.2.48.11 3.11-6.56.44-.93c.08-.17-.3-.15-.36-.14s-.43.1-.51.27l-3.06 6.56-.44.92c-.1.21.44.13.49.12l6.55-1.38.94-.2c.12 0 .48-.16.36-.34l-3.51-5.12-.49-.73c-.13-.27-.98.02-.81.27zm-14.63.01l3.45 5.18.49.73.35-.39-6.56 1.38-.93.2.46.23 3.11-6.56.44-.93c.18-.38-.69-.29-.81 0l-3.11 6.56-.44.93c-.14.29.3.27.46.23l6.56-1.38.94-.2c.14 0 .47-.19.34-.39l-3.45-5.18-.49-.73c-.16-.23-1.01.02-.81.32zm-14.67-.06l3.46 5.18.49.74.52-.28-6.56 1.39-.93.19.34.08 3.11-6.56.44-.93c.06-.12-.75-.07-.86.16L73.62 127l-.44.93c-.06.14.32.08.35.08l6.56-1.38.93-.2s.6-.15.52-.28L78.09 121l-.49-.73c-.14-.22-.94.13-.88.22zm-14.6.05l3.45 5.18.49.73.48-.36-6.55 1.38-.94.2.36.13 3.11-6.56.44-.93c.09-.19-.75-.12-.86.13L58.99 127l-.44.93c-.08.16.31.14.36.13l6.56-1.38.93-.2c.12 0 .62-.14.48-.36L63.43 121l-.49-.73c-.13-.27-1.01.02-.82.27zm-14.63.01l3.44 5.18.49.73.35-.39-6.56 1.38-.93.2.47.23 3.1-6.56.44-.93c.18-.38-.69-.29-.81 0l-3.11 6.56-.44.93c-.14.29.3.27.47.23l6.53-1.4.94-.2c.15 0 .48-.19.35-.39l-3.46-5.18-.49-.73c-.13-.21-.98.04-.78.34zm-14.66-.06l3.45 5.18.49.74.52-.26-6.55 1.38-.94.2.35.06 3.1-6.57.44-.92c.07-.13-.3-.07-.34-.07s-.45.09-.52.23l-3.1 6.54-.44.93c-.07.13.32.07.34.06l6.56-1.38.93-.2s.6-.15.52-.26L34.19 121l-.49-.73c-.13-.21-.92.15-.87.22zm-14.6.06l3.45 5.18.49.73.35-.38-6.59 1.38-.93.2.49.15 3.11-6.56.44-.93c.08-.18-.3-.19-.38-.18a.62.62 0 0 0-.49.29L15.09 127l-.44.93c-.11.23.44.16.49.15l6.56-1.38.93-.2c.14 0 .48-.18.35-.38l-3.45-5.18-.49-.73c-.11-.21-1.01.05-.81.34zm-14.64-.01l3.46 5.18.49.74.35-.37-6.56 1.38-.93.2.49.14L4 121.25l.44-.93c.08-.18-.3-.18-.38-.17a.64.64 0 0 0-.5.29L.45 127l-.43.93c-.11.22.43.15.49.14l6.55-1.38.94-.19c.13 0 .48-.19.35-.38l-3.42-5.18-.49-.73c-.18-.21-1.03.05-.85.33zm131.7.03l3.45 5.17.49.74.33-.47-6.56 1.38-.93.2.49.32 3.11-6.56.44-.93c.2-.44-.68-.41-.83-.08l-3.11 6.56-.44.93c-.15.31.29.36.49.32l6.55-1.38.94-.2c.19 0 .47-.25.32-.47l-3.45-5.18-.49-.73c-.16-.31-1.04.01-.8.38zm-6.08 12.6l3.45 5.18.49.73.35-.39-6.57 1.38-.93.2.47.23 3.11-6.57.43-.92c.18-.38-.69-.28-.81 0l-3.11 6.56-.44.93c-.14.29.3.26.47.23l6.55-1.38.94-.2c.15 0 .48-.19.35-.39l-3.46-5.18-.49-.73c-.15-.27-1 .02-.8.32zm-14.63.02l3.46 5.18.49.73.32-.48-6.56 1.38-.93.19.49.35 3.08-6.54.44-.93c.21-.44-.67-.43-.83-.09l-3.11 6.56-.44.93c-.15.32.29.39.5.34l6.55-1.38.94-.19c.19-.05.47-.27.32-.49l-3.37-5.21-.49-.73c-.27-.33-1.1.01-.86.38zm-14.65-.08l3.45 5.18.49.74.52-.28-6.56 1.38-.93.2.35.08 3.1-6.56.44-.93c.07-.14-.3-.09-.35-.08s-.44.08-.51.24l-3.11 6.56-.44.93c-.06.14.32.08.35.08l6.56-1.38.93-.2s.61-.15.52-.28l-3.45-5.17-.49-.74c-.15-.21-.95.12-.87.23zm-14.62.05l3.46 5.18.49.74.35-.36-6.56 1.38-.93.2.49.13 3.11-6.57.44-.92c.08-.18-.3-.17-.37-.16a.62.62 0 0 0-.5.28l-3.11 6.56-.44.93c-.11.22.44.14.48.13l6.56-1.38.94-.19c.12 0 .47-.18.35-.36l-3.45-5.18-.49-.74c-.15-.21-1 .06-.82.33zm-14.63 0l3.45 5.18.49.73.48-.36-6.56 1.38-.93.2.36.13 3.11-6.56.44-.93c.08-.16-.3-.14-.36-.13s-.43.09-.51.26l-3.1 6.57-.44.92c-.08.17.31.15.36.14l6.56-1.38.93-.2c.12 0 .62-.14.48-.36l-3.45-5.18-.49-.73c-.14-.2-.98.07-.82.32zm-14.63.01l3.45 5.18.49.73.35-.39-6.56 1.38-.93.2.46.23 3.11-6.57.44-.92c.18-.38-.69-.28-.81 0l-3.12 6.54-.44.93c-.14.29.3.26.47.23l6.55-1.38.94-.2c.14 0 .48-.19.34-.39l-3.45-5.18-.49-.73c-.15-.25-1 .04-.8.34zm-14.63 0l3.45 5.18.49.73.35-.39-6.56 1.38-.93.2.46.23 3.11-6.56.44-.93c.18-.38-.69-.29-.81 0l-3.11 6.56-.44.93c-.14.29.3.27.46.23l6.6-1.4.94-.2c.15 0 .47-.19.34-.39l-3.45-5.18-.49-.73c-.21-.25-1.05.04-.85.34zm-14.63.01l3.45 5.18.49.73.33-.44-6.55 1.35-.94.19.49.3 3.11-6.49.43-.93c.2-.42-.67-.37-.82-.06l-3.11 6.56-.44.93c-.15.31.29.33.48.29l6.56-1.38.94-.19c.17 0 .47-.24.33-.45l-3.46-5.18-.49-.74c-.19-.33-1.03-.01-.8.33zm-14.63.01l3.45 5.18.49.74.32-.51-6.56 1.4-.93.2.5.36 3.11-6.56.44-.93c.21-.45-.67-.47-.84-.11l-3.11 6.55-.44.92c-.15.33.29.42.5.37l6.56-1.38.94-.2c.2 0 .46-.28.31-.5l-3.45-5.18-.52-.74c-.2-.34-1 0-.77.39zm131.69-.02l3.45 5.18.49.74.34-.41-6.56 1.38-.93.2.47.25 3.11-6.57.44-.93c.18-.39-.69-.31-.82 0l-3.11 6.56-.44.93c-.14.3.3.29.47.25l6.56-1.38.94-.19c.15 0 .47-.21.34-.41l-3.46-5.18-.49-.74c-.17-.29-1.01.01-.8.32zm-23.19 12.64l3.45 5.18.49.74.32-.51-6.56 1.38-.94.19.51.38 3.11-6.57.44-.92c.22-.46-.67-.49-.84-.12l-3.11 6.56-.44.93c-.15.33.28.42.5.38l6.56-1.38.94-.2c.21 0 .46-.29.31-.51l-3.47-5.18-.49-.74c-.21-.35-1.04 0-.78.39zm-14.64-.02l3.45 5.18.49.73.35-.39-6.56 1.38-.93.19.46.24 3.11-6.56.44-.93c.19-.38-.69-.29-.81 0l-3.09 6.54-.44.93c-.14.29.3.27.47.23l6.55-1.38.94-.19c.15 0 .48-.2.34-.4l-3.45-5.18-.49-.73c-.18-.25-1.03.04-.83.34zm-14.66-.06l3.45 5.18.49.74.52-.26-6.55 1.38-.94.19.34.07 3.11-6.57.44-.92c.07-.14-.3-.07-.34-.07s-.45.09-.52.23l-3.11 6.56-.43.93c-.07.13.31.07.34.06l6.56-1.38.93-.19s.6-.16.52-.26l-3.45-5.18-.49-.74c-.13-.2-.93.15-.87.23zm-14.6.07l3.45 5.2.49.73.33-.44-6.55 1.38-.94.2.49.29 3.1-6.56.44-.93c.2-.42-.68-.37-.82-.06l-3.11 6.56-.44.93c-.15.31.29.33.48.29l6.56-1.39.93-.2c.18 0 .48-.23.34-.44l-3.46-5.18-.49-.73c-.19-.3-1.03.01-.8.35z"/><path d="M62.12 145.78l3.45 5.22.49.73.36-.34-6.55 1.38-.94.2.48.11 3.11-6.56.44-.93c.08-.17-.29-.15-.36-.14a.72.72 0 0 0-.51.27l-3.1 6.57-.44.92c-.1.21.44.13.48.12l6.56-1.38.93-.2c.12 0 .48-.16.36-.34l-3.45-5.18-.49-.73c-.14-.25-1.01.03-.82.28zm-14.66-.05l3.47 5.18.49.74.52-.29-6.56 1.38-.93.19.35.11 3.13-6.57.44-.93c.07-.15-.75-.08-.87.15l-3.1 6.57-.44.92c-.08.15.31.11.35.1l6.56-1.38.93-.19s.61-.16.52-.29l-3.46-5.18-.49-.74c-.19-.22-.99.11-.91.23zm-14.59.09l3.45 5.18.49.73.31-.52-6.56 1.38-.93.2.51.38 3.11-6.56.43-.93c.22-.46-.66-.5-.84-.12l-3.11 6.56-.43.93c-.16.32.28.43.5.38l6.56-1.38.93-.2c.22 0 .47-.29.32-.52l-3.46-5.18-.49-.73c-.23-.35-1.06 0-.79.4zm-14.64-.01l3.46 5.19.49.74.31-.51-6.56 1.37-.93.2.5.36 3.11-6.56.44-.93c.22-.45-.66-.47-.84-.11l-3.11 6.57-.44.92c-.15.33.29.41.51.37l6.55-1.42.94-.2c.21 0 .46-.28.31-.5l-3.45-5.18-.49-.74c-.23-.3-1.1.05-.8.43zm-14.63 0L7.05 151l.49.73.32-.48-6.55 1.37-.94.19.5.35 3.11-6.57.44-.92c.21-.45-.67-.45-.84-.1l-3.11 6.56-.44.93c-.15.32.29.39.5.35L7.09 152l.93-.19c.2 0 .47-.27.32-.49l-3.41-5.16-.49-.73c-.26-.33-1.09 0-.84.38zm131.69-.02l3.45 5.18.49.73.34-.39-6.55 1.38-.94.19.47.24 3.11-6.56.44-.93c.18-.38-.69-.29-.82 0l-3.11 6.56-.44.93c-.14.29.3.27.47.23l6.56-1.38.93-.19c.15 0 .48-.2.35-.4l-3.45-5.18-.49-.73c-.17-.27-1.02.02-.81.32zM120.65 171l3.46 5.18.49.73.34-.42-6.56 1.38-.94.19.48.27 3.11-6.56.44-.93c.19-.4-.69-.33-.82 0l-3.11 6.56-.44.93c-.14.3.29.3.48.27l6.55-1.39.94-.19c.16 0 .47-.22.33-.43l-3.47-5.18-.49-.73c-.16-.27-1 .03-.79.32zm-14.66 0l3.45 5.18.49.73.52-.27-6.52 1.36-.93.19.35.08 3.11-6.56.44-.93c0-.12-.76-.07-.86.16l-3.11 6.56-.44.93c-.07.14.32.08.34.08l6.56-1.38.94-.2s.6-.15.52-.27l-3.46-5.18-.49-.74c-.18-.21-.97.14-.91.26zm-14.6 0l3.45 5.18.49.74.33-.46-6.55 1.38-.94.2.49.3 3.11-6.56.44-.93c.2-.42-.68-.38-.83-.07l-3.11 6.57-.44.93c-.15.31.29.34.49.3l6.55-1.38.94-.2c.18 0 .47-.24.33-.45l-3.45-5.18-.49-.74c-.2-.25-1.04.06-.81.37zm-14.67 0l3.46 5.18.49.73.52-.27-6.56 1.36-.93.2.34.07 3.11-6.56.44-.93c0-.11-.76-.06-.86.16l-3.11 6.56-.44.93c-.06.14.32.08.35.07l6.56-1.38.93-.2s.6-.15.52-.26l-3.45-5.18-.49-.74c-.14-.2-.93.15-.88.26zm-14.6 0l3.46 5.18.49.73.34-.39-6.56 1.38-.93.2.47.23 3.11-6.56.44-.93c.18-.38-.69-.29-.82 0l-3.11 6.56-.44.93c-.14.29.3.27.47.23l6.56-1.38.93-.19c.15 0 .48-.2.35-.4l-3.46-5.18-.49-.73c-.16-.24-1 .05-.81.32zm-14.63 0l3.44 5.22.49.74.33-.46-6.56 1.39-.93.19.48.3 3.11-6.56.44-.93c.2-.42-.68-.38-.83-.07l-3.11 6.57-.44.93c-.14.31.3.34.49.3l6.56-1.38.97-.24c.18 0 .47-.24.33-.45l-3.45-5.18-.49-.74c-.22-.25-1.06.06-.83.37zm-14.63.05l3.46 5.18.49.73.32-.48-6.56 1.39-.93.19.49.33 3.11-6.56.44-.93c.21-.44-.67-.42-.83-.09l-3.11 6.57-.44.93c-.15.31.29.37.49.33l6.56-1.38.93-.2c.2 0 .47-.26.33-.48l-3.45-5.18-.49-.73c-.22-.32-1.05.01-.81.38zm-14.63 0l3.45 5.18.49.73.33-.48-6.57 1.38-.93.2.49.33 3.11-6.56.44-.93c.21-.44-.67-.43-.83-.09l-3.11 6.57-.44.92c-.15.32.29.38.49.34l6.56-1.38.93-.2c.2 0 .47-.26.33-.48l-3.46-5.18-.49-.73c-.2-.32-1.03.01-.79.38zM3.56 171l3.46 5.18.49.73.52-.27L1.47 178l-.93.19.34.07 3.11-6.56.44-.93c0-.11-.76-.06-.86.16L.46 177.5l-.44.93c-.06.13.32.07.35.07l6.56-1.38.94-.2s.59-.15.52-.26l-3.46-5.18-.49-.74c-.14-.2-.93.15-.88.26zm131.73.05l3.45 5.18.49.73.32-.48-6.55 1.38-.94.19.5.35 3.11-6.57.44-.92c.21-.45-.67-.45-.84-.1l-3.11 6.56-.44.93c-.15.32.29.39.5.35l6.56-1.39.93-.19c.2 0 .47-.27.32-.49l-3.45-5.18-.49-.73c-.22-.33-1.05.01-.8.38zm-6.07-12.62l3.45 5.18.49.73.32-.48-6.55 1.38-.94.2.5.34 3.1-6.57.44-.93c.21-.44-.67-.43-.83-.09l-3.11 6.57-.44.92c-.15.32.29.38.5.34l6.55-1.38.94-.2c.19 0 .47-.26.32-.48l-3.45-5.18-.49-.73c-.21-.32-1.09.01-.8.38zm-14.64-.01l3.46 5.18.49.73.33-.44-6.56 1.38-.93.2.48.29 3.08-6.56.44-.93c.19-.42-.68-.37-.83-.06l-3.11 6.56-.44.93c-.14.31.3.33.49.29l6.55-1.38.94-.2c.17 0 .47-.23.33-.44l-3.37-5.18-.49-.73c-.24-.29-1.08.02-.86.36zm-14.65-.06l3.45 5.17.49.74.51-.3-6.56 1.38-.93.2.36.11 3.11-6.57.44-.92c.08-.17-.76-.1-.87.14l-3.11 6.56-.44.93c-.07.16.32.12.36.11l6.56-1.38.93-.19s.61-.16.51-.3l-3.45-5.18-.49-.74c-.17-.23-.98.1-.87.24zm-14.62.04l3.45 5.18.49.73.48-.36-6.55 1.38-.94.2.37.13 3.11-6.56.43-.93c.08-.16-.29-.14-.36-.13a.64.64 0 0 0-.5.26l-3.11 6.57-.44.93c-.08.16.31.14.36.13l6.56-1.38.93-.2c.13 0 .63-.14.48-.36l-3.45-5.18-.49-.73c-.13-.2-.98.07-.82.32zm-14.63 0l3.45 5.18.49.74.36-.36-6.56 1.38-.93.2.48.13 3.11-6.57.44-.92c.09-.18-.29-.17-.37-.16a.65.65 0 0 0-.5.28l-3.11 6.56-.44.93c-.1.22.44.14.49.13l6.56-1.38.93-.19c.13 0 .48-.18.36-.36l-3.45-5.18-.49-.74c-.15-.21-1 .06-.82.33zm-14.62.03l3.45 5.18.49.73.32-.48-6.56 1.38-.93.19.49.35 3.11-6.57.44-.92c.21-.45-.67-.44-.83-.1l-3.11 6.56-.44.93c-.15.32.29.39.5.34l6.55-1.38.94-.19c.2 0 .47-.27.32-.49l-3.45-5.18-.49-.73c-.22-.33-1.05.01-.8.38zm-14.67-.07l3.45 5.17.49.74.51-.31-6.56 1.38-.93.2.36.12 3.11-6.56.44-.93c.09-.19-.75-.11-.87.14l-3.11 6.56-.44.93c-.08.16.32.13.36.12l6.56-1.38.93-.19s.62-.16.51-.31l-3.45-5.18-.49-.74c-.16-.24-.97.09-.87.24zm-14.6.07l3.45 5.18.49.74.32-.5-6.55 1.38-.94.2.5.35 3.11-6.56.44-.93c.21-.45-.67-.45-.84-.1l-3.11 6.56-.43.93c-.16.32.28.39.49.35l6.56-1.38.93-.2c.21 0 .47-.27.32-.49l-3.45-5.18-.49-.73c-.22-.33-1.05 0-.8.38zm-14.64-.03l3.45 5.18.49.74.36-.36-6.52 1.38-.93.19.49.14 3.11-6.57.43-.92c.09-.18-.29-.17-.37-.16a.63.63 0 0 0-.5.28l-3.11 6.56-.43.93c-.11.22.44.14.48.13l6.56-1.38.93-.19c.13 0 .48-.18.36-.36l-3.45-5.18-.49-.74c-.19-.21-1.08.06-.86.33zm131.66-.04l3.46 5.17.49.74.52-.27-6.56 1.38-.94.19.35.08 3.11-6.56.44-.93c.06-.12-.76-.06-.86.16l-3.11 6.56-.44.93c-.07.14.32.08.35.08l6.56-1.39.93-.19s.6-.15.52-.27l-3.45-5.18-.49-.74c-.14-.21-.94.14-.88.24z"/></g><path d="M63.62 85.58s-12.8-3.17-24 1.53S30.01 60.07 30.93 59s21.48-13.71 21.48-13.71zm22.15-.44s13-2.4 23.86 3 11.21-26.43 10.41-27.59-20.68-14.96-20.68-14.96z" fill="#d3b9a3"/><path d="M51.01 55.88c-2.5-7.75-8.42-6-9-5.77s-6.69 1-5.64 9 5.78 12.53 10.2 11.24c4.57-.67 6.95-6.67 4.44-14.47zm49.92 0c2.5-7.75 8.41-6 9-5.77s6.7 1 5.64 9-5.78 12.53-10.2 11.24c-4.6-.67-6.98-6.67-4.44-14.47z" fill="#cc887f"/><path d="M44.93 44.14c3.1-34 28.94-32.09 31.38-31.83 2.43-.26 28.27-2.16 31.37 31.83 3.12 34.19-12.11 56.52-31.37 55.29-19.25 1.23-34.48-21.1-31.38-55.29z" fill="#ffac9d"/><g stroke="#765e69"><path d="M41.31 52.19l8.7 6.69 21 1s6.16-6.83 12.83-.33l19.33.33 8.27-6.71" fill="none" stroke-miterlimit="10" stroke-width="1.43"/><g stroke-width="1.34" fill="#a9c7db"><circle cx="59.77" cy="58.98" r="10.51" transform="matrix(.980649 -.195775 .195775 .980649 -9.46 12.84)"/><circle cx="92.26" cy="58.98" r="10.51" transform="matrix(.34988 -.936794 .936794 .34988 5.66 124.78)"/></g></g><path d="M80.77 61a23 23 0 0 1 1.82 4.87l.56 2.5.38 2.55.05.4-.22.2-2.13 1.85c-.72.6-1.47 1.15-2.3 1.7.52-.81 1.09-1.57 1.66-2.32l1.77-2.2-.17.6-.67-2.48-.5-2.52a23.53 23.53 0 0 1-.25-5.15z" fill="#cc887f"/><path d="M89.49 81.17c-6.15 6-16.57 5.65-24.46.32" fill="#fff"/><path d="M100.69 49.44a45.42 45.42 0 0 0-4.15-2.12 13.1 13.1 0 0 0-4-1.09 8.45 8.45 0 0 0-3.94.54 15.79 15.79 0 0 0-2 .86l-2.11 1.13a11.46 11.46 0 0 1 1.27-2.15 8.75 8.75 0 0 1 1.9-1.73 7.21 7.21 0 0 1 1.15-.67l1.27-.46a8.37 8.37 0 0 1 2.73-.21 9.32 9.32 0 0 1 4.84 2 9.76 9.76 0 0 1 3.04 3.9zm-32.19 0a45.42 45.42 0 0 0-4.15-2.12 13.1 13.1 0 0 0-4-1.09 8.45 8.45 0 0 0-3.94.54 15.79 15.79 0 0 0-2 .86l-2.11 1.13a11.46 11.46 0 0 1 1.27-2.15 9 9 0 0 1 1.9-1.73 7.21 7.21 0 0 1 1.15-.67l1.27-.46a8.37 8.37 0 0 1 2.73-.21 9.32 9.32 0 0 1 4.84 2 9.67 9.67 0 0 1 3.04 3.9zm-1.02 12.31a10.21 10.21 0 0 0-1.91-3.86 4.48 4.48 0 0 0-3.49-1.61 5.08 5.08 0 0 0-1.95.29 3.79 3.79 0 0 0-1.53 1.17 8.22 8.22 0 0 0-1.39 4 6.33 6.33 0 0 1 .62-4.54 4.4 4.4 0 0 1 1.85-1.67 5.89 5.89 0 0 1 2.43-.45 5 5 0 0 1 4.2 2.24 7.23 7.23 0 0 1 1.17 4.43zm28.92-.46a10 10 0 0 0-1.9-3.86 4.47 4.47 0 0 0-3.49-1.62 5 5 0 0 0-2 .3 3.76 3.76 0 0 0-1.53 1.16 8.16 8.16 0 0 0-1.39 4 6.27 6.27 0 0 1 .62-4.54 4.31 4.31 0 0 1 1.85-1.68 5.84 5.84 0 0 1 2.42-.45 5 5 0 0 1 4.21 2.24 7.25 7.25 0 0 1 1.21 4.45z" fill="#352c38"/><g fill="#fddec0"><path d="M46.2 8.26s9.67-12.33 29-4.33c11-7 19.34-3.67 27.34 2.33l-25.67 13z"/><path d="M11.03 80.05A32.2 32.2 0 0 1 8.93 69a23.21 23.21 0 0 1 .75-5.66 20.92 20.92 0 0 1 2.35-5.27 26.18 26.18 0 0 1 8.14-8 47.83 47.83 0 0 1 5-2.78 18.22 18.22 0 0 0 4.37-3 20.88 20.88 0 0 0 5.54-9c1.22-3.43 1.93-7.07 2.87-10.7a38.74 38.74 0 0 1 4-10.56 19.08 19.08 0 0 1 8.38-7.38A22.6 22.6 0 0 0 46 10.09a18.54 18.54 0 0 0-3.15 4.47A41.33 41.33 0 0 0 39.48 25a104.57 104.57 0 0 1-2.6 11 22.53 22.53 0 0 1-6 9.85A19.82 19.82 0 0 1 26.03 49a53.86 53.86 0 0 0-4.8 2.62 25.58 25.58 0 0 0-7.86 7.28 20.53 20.53 0 0 0-2.4 4.8 22.25 22.25 0 0 0-1 5.33 35 35 0 0 0 1.06 11.02zm66.38-56.47a17.59 17.59 0 0 0-5.33-1.28 9.33 9.33 0 0 0-5.08.92 7.85 7.85 0 0 0-3.33 3.64 24.35 24.35 0 0 0-1.52 5.06c-.68 3.52-.85 7.23-1.76 11a23.24 23.24 0 0 1-5.55 10.27c-.67.71-1.4 1.36-2.09 2s-1.5 1.21-2.24 1.82-1.57 1.1-2.34 1.65l-1.14.79A7.35 7.35 0 0 0 44.65 62a7.81 7.81 0 0 0-.72 2.23 16.13 16.13 0 0 0 .25 5.1c.7 3.51 2 7 2.87 10.66a25.68 25.68 0 0 1 .88 5.61 11.84 11.84 0 0 1-.32 2.84A7.9 7.9 0 0 1 46.3 91a7.6 7.6 0 0 0 .83-2.6 11.62 11.62 0 0 0-.05-2.7 26.55 26.55 0 0 0-1.4-5.26c-1.2-3.51-2.75-6.89-3.75-10.62a16.61 16.61 0 0 1-.56-5.93 10 10 0 0 1 .89-3.07 9.19 9.19 0 0 1 1.92-2.6 8.91 8.91 0 0 1 1.23-1l1.14-.81c.73-.53 1.5-1 2.19-1.58s1.39-1.12 2-1.7 1.28-1.23 1.88-1.87a20.72 20.72 0 0 0 5-9c1-3.38 1.23-7.13 2.21-10.83.26-.93.5-1.85.85-2.75A17.3 17.3 0 0 1 62 26a9.47 9.47 0 0 1 4.4-4 10.11 10.11 0 0 1 5.79-.43 15.81 15.81 0 0 1 5.22 2.01z"/><path d="M48.6 6.26c-16.67 10.34-4.67 33.67-22 43.34s-15.66 23-12 32.66c1.31 3.44 4.92 5.31 9 6.3-1.28-5-2.29-12.13-.45-19 0 0-1.32 11.64 2.65 19.41a46.22 46.22 0 0 0 6.28.57 21.26 21.26 0 0 1-.59-7.32 47.05 47.05 0 0 0 2.22 7.34 59.26 59.26 0 0 0 6.51-.34c6.71-7.96-9.62-26.29 2.71-32.62 18.2-9.35 14-18.67 19-29s14.26-3.34 14.26-3.34C77.87 4.6 65.27-4.07 48.6 6.26zm91.51 73.79a35 35 0 0 0 1.09-11 22.25 22.25 0 0 0-1-5.33 20.53 20.53 0 0 0-2.4-4.8 25.58 25.58 0 0 0-7.87-7.26A52.69 52.69 0 0 0 125.1 49a20 20 0 0 1-4.86-3.25 22.53 22.53 0 0 1-6-9.85 104.57 104.57 0 0 1-2.58-10.9 41.33 41.33 0 0 0-3.37-10.43 18.54 18.54 0 0 0-3.15-4.47 22.6 22.6 0 0 0-4.33-3.44 19.08 19.08 0 0 1 8.33 7.42 38.74 38.74 0 0 1 4 10.56c.94 3.63 1.65 7.27 2.87 10.7a20.78 20.78 0 0 0 5.54 9 18.22 18.22 0 0 0 4.37 3 47.83 47.83 0 0 1 5 2.78 26.18 26.18 0 0 1 8.14 8 20.92 20.92 0 0 1 2.35 5.27 23.21 23.21 0 0 1 .75 5.66 32.2 32.2 0 0 1-2.05 11z"/><path d="M73.73 23.58a15.72 15.72 0 0 1 5.2-2.07 10.11 10.11 0 0 1 5.79.43 9.47 9.47 0 0 1 4.4 4 17.3 17.3 0 0 1 1.2 2.69c.35.9.59 1.82.85 2.75 1 3.7 1.23 7.45 2.21 10.83a20.62 20.62 0 0 0 5 9c.6.64 1.25 1.24 1.88 1.87s1.37 1.13 2.05 1.7 1.46 1 2.19 1.58l1.13.81a7.86 7.86 0 0 1 1.23 1 9 9 0 0 1 1.93 2.6 10 10 0 0 1 .89 3.07 16.61 16.61 0 0 1-.56 5.93c-1 3.73-2.51 7.11-3.71 10.57a25.88 25.88 0 0 0-1.4 5.26 11.09 11.09 0 0 0 0 2.7 7.81 7.81 0 0 0 .82 2.6 8.09 8.09 0 0 1-1.25-2.51 11.84 11.84 0 0 1-.32-2.84 25.68 25.68 0 0 1 .83-5.61c.91-3.64 2.17-7.15 2.87-10.66a16.42 16.42 0 0 0 .25-5.1 7.81 7.81 0 0 0-.72-2.22 7.35 7.35 0 0 0-2.38-2.5c-.31-.23-.76-.53-1.14-.79-.77-.55-1.59-1-2.34-1.65s-1.5-1.19-2.24-1.82-1.42-1.32-2.09-2A23.24 23.24 0 0 1 90.75 43c-.91-3.8-1.08-7.51-1.76-11a25 25 0 0 0-1.52-5.06 8 8 0 0 0-3.33-3.64 9.33 9.33 0 0 0-5.08-.92 17.59 17.59 0 0 0-5.33 1.2z"/><path d="M124.54 49.6c-17.34-9.67-5.34-33-22-43.34s-28-1.66-26.34 18c0 0 8-7 13 3.34s.8 19.65 19 29c12.34 6.33-4 24.66 2.67 32.66a62 62 0 0 0 11.12.16 48.33 48.33 0 0 0 2.88-12.16 30.54 30.54 0 0 1-.78 11.93 30.89 30.89 0 0 0 4.46-.9 28.86 28.86 0 0 0 1.32-5 30.48 30.48 0 0 1-.15 4.66c3.15-1.1 5.75-2.86 6.82-5.66 3.66-9.69 5.33-23.03-12-32.69z"/></g></svg>