<svg xmlns="http://www.w3.org/2000/svg" viewBox="0 0 148.35 176.29"><path d="M116.2,25.67s2.67,19,10.67,31.67c11.54,18.26-3.33,20.66-.33,33.33s26,23.33-1.34,52.33c-17.89,19-39.33-18-39.33-18l-6-48.33Z" fill="#fc6a5a"/><path d="M107.38 56.58a204.56 204.56 0 0 1-8.44-6.68L79.87 73.54l6 42.67a70 70 0 0 0 12.84 14.14c2-2.17 6.56 7.89 9.16 7 8.67-3 24.33-19.67 13-32.34-13.54-15.13 2.67-32.34-13.49-48.43z" fill="#d35450"/><path d="M94.07 117.68c-8.48-4.62-6.17-27-6.17-27l-12.7.82v-.8l-1.36.4-1.36-.4v.81l-12.7-.82s2.31 22.37-6.17 27S-5 124.62.41 176.29h146.87c5.4-51.67-44.72-53.98-53.21-58.61z" fill="#f19c7c"/><path d="M58 111.91q15.23-2.26 30.42-4.68a67.69 67.69 0 0 1-.52-16.54l-12.7.82v-.81l-1.36.4-1.36-.4v.81l-12.7-.82s1.34 13-1.78 21.22z" fill="#c47d66"/><path d="M105.93 156a79.83 79.83 0 0 1 1-34.4l-5.93-1.64c-.81 9.34-1.91 18.82-5.42 27.23a44.49 44.49 0 0 1-4.85 8.81z" fill="#352c38"/><path d="M121.37,126.46C113,137.93,95,145.87,74.18,145.87S35.37,137.93,27,126.46C12.06,133.5-2.65,147,.41,176.29H147.94C151,147,136.29,133.5,121.37,126.46Z" fill="#5d8584"/><path d="M70.37,162.67c29.63,0,55.56-8.57,69.82-21.38-5.07-6.94-11.92-11.58-18.82-14.83C113,137.93,95,145.87,74.18,145.87S35.37,137.93,27,126.46c-8.15,3.84-16.23,9.62-21.39,18.84C20.48,155.85,44,162.67,70.37,162.67Z" fill="#6f9b99"/><path d="M49 58c-2.5-7.76-8.42-6-9-5.77s-6.69 1-5.64 9.05 5.78 12.53 10.2 11.23c4.58-.76 6.96-6.75 4.44-14.51zm49.91 0c2.5-7.76 8.41-6 9-5.77s6.7 1 5.64 9.05-5.78 12.53-10.2 11.23c-4.58-.76-6.96-6.75-4.44-14.51z" fill="#c47d66"/><path d="M42.94 46.21c3.1-34 28.94-32.09 31.38-31.83 2.43-.26 28.27-2.16 31.37 31.83 3.12 34.19-12.11 56.53-31.37 55.3-19.26 1.23-34.49-21.11-31.38-55.3z" fill="#f19c7c"/><g fill="#fc6a5a"><path d="M55.7 18.84s3.17 25.83 28.84 30.83L78.2 33.84S80.37 53 105.87 52c0 0 9.33 4.34 6 14.34a20.51 20.51 0 0 0 5.67-20.67c-3.5-13 4.66-13.83-8.34-33-11.46-16.9-49-18.83-53.5 6.17z"/><path d="M62.87 13.34s-12.33-10-21.67 1.33-7 29-15.66 40-7.34 20.67 3.33 31-30 20-17 45.67 45.33 12 47.67-8.34 1-24.66 1-24.66-13.67-10.67-16-27.67 1.66-25.33 9-31.33 14-11.34 9.33-26z"/></g><path d="M17.87 119.34c-2.72-5.25-3.12-9.34-2.14-12.67-5.49 6.29-9.2 14.13-3.86 24.67 13 25.66 45.33 12 47.67-8.34l.14-1.32c-10.23 8.09-31.78 17.03-41.81-2.34z" fill="#d35450"/><path d="M78.77 63.21a22.9 22.9 0 0 1 1.82 4.86l.56 2.51.38 2.54v.4l-.22.2-2.13 1.85-2.26 1.74 1.65-2.32 1.78-2.19-.17.59-.67-2.48-.5-2.52a23.44 23.44 0 0 1-.24-5.18z" fill="#a06653"/><path d="M87.49,83.41c-6.15,6-16.57,5.65-24.47.32" fill="#fff"/><path d="M98.69 51.68a45.42 45.42 0 0 0-4.15-2.12 13.1 13.1 0 0 0-4-1.09 8.58 8.58 0 0 0-3.94.54 15.79 15.79 0 0 0-2 .86L82.49 51a11.78 11.78 0 0 1 1.27-2.15 8.75 8.75 0 0 1 1.9-1.73 6.49 6.49 0 0 1 1.15-.66l1.27-.47a8.65 8.65 0 0 1 2.73-.21 9.41 9.41 0 0 1 4.84 2 9.76 9.76 0 0 1 3.04 3.9zm-32.19 0a45.42 45.42 0 0 0-4.15-2.12 13.1 13.1 0 0 0-4-1.09 8.58 8.58 0 0 0-3.94.54 15.79 15.79 0 0 0-2 .86L50.3 51a11.78 11.78 0 0 1 1.27-2.15 9 9 0 0 1 1.9-1.73 6.49 6.49 0 0 1 1.15-.66l1.27-.47a8.65 8.65 0 0 1 2.73-.21 9.41 9.41 0 0 1 4.84 2 9.67 9.67 0 0 1 3.04 3.9zM65.48 64a10.18 10.18 0 0 0-1.91-3.87 4.48 4.48 0 0 0-3.49-1.61 5.08 5.08 0 0 0-1.95.3A3.68 3.68 0 0 0 56.6 60a8.26 8.26 0 0 0-1.39 4 6.35 6.35 0 0 1 .62-4.55 4.47 4.47 0 0 1 1.85-1.67 5.89 5.89 0 0 1 2.43-.45 5 5 0 0 1 4.2 2.24A7.25 7.25 0 0 1 65.48 64zm28.92-.47a10 10 0 0 0-1.9-3.86 4.46 4.46 0 0 0-3.5-1.61 4.84 4.84 0 0 0-2 .29 3.76 3.76 0 0 0-1.53 1.16 8.19 8.19 0 0 0-1.39 4 6.28 6.28 0 0 1 .68-4.51 4.31 4.31 0 0 1 1.85-1.68 5.84 5.84 0 0 1 2.39-.46 5.07 5.07 0 0 1 4.21 2.24 7.25 7.25 0 0 1 1.19 4.43z" fill="#352c38"/></svg>