<svg xmlns="http://www.w3.org/2000/svg" viewBox="0 0 154.54 176.52"><path d="M97.74 117.86c-8.48-4.62-6.16-27-6.16-27l-12.71.82v-.81l-1.36.4-1.36-.4v.81l-12.7-.82s2.31 22.37-6.17 27-58.6 6.94-53.2 58.61H151c5.35-51.67-44.77-53.98-53.26-58.61z" fill="#f19c7c"/><path d="M61.67 112.1q15.22-2.28 30.42-4.69a67.43 67.43 0 0 1-.51-16.54l-12.71.82v-.81l-1.36.4-1.36-.4v.81l-12.7-.82s1.34 13-1.78 21.23z" fill="#c47d66"/><path d="M105.89 120.46c-6.9 6.16-17 10.06-28.38 10.06s-21.51-3.9-28.37-10.06c-16.7 4.49-49.48 13.71-45.06 56H151c4.37-42.29-28.42-51.46-45.11-56z" fill="#fc6a5a"/><path d="M3.71 167.68a68.74 68.74 0 0 0 .37 8.79H151c1.92-18.36-3.18-30.48-10.92-38.69-45.89 8-91.26 18.45-136.37 29.9z" fill="#d35450"/><path d="M46.87 118.52l8.67 58H.21s-6-49.33 46.66-58z" fill="#765e69"/><path d="M46.87 118.52l8.67 58-23.33-36.67 9.33-12.66-12-4.67a50.93 50.93 0 0 1 17.33-4z" fill="#8e7280"/><path d="M107.67 118.52l-8.67 58h55.33s6-49.33-46.66-58z" fill="#765e69"/><path d="M107.67 118.52l-8.67 58 23.33-36.67-9.33-12.66 12-4.67a50.93 50.93 0 0 0-17.33-4z" fill="#8e7280"/><path d="M52.68 58.14c-2.5-7.76-8.42-6-9-5.77s-6.7 1-5.65 9.05S43.84 74 48.26 72.66c4.55-.73 6.93-6.72 4.42-14.52zm49.9 0c2.5-7.76 8.42-6 9-5.77s6.7 1 5.64 9.05S111.41 74 107 72.66c-4.56-.73-6.94-6.72-4.42-14.52z" fill="#c47d66"/><path d="M46.61 46.39c3.1-34 28.94-32.08 31.38-31.83 2.44-.25 28.28-2.16 31.37 31.83 3.12 34.2-12.11 56.53-31.37 55.3-19.26 1.23-34.49-21.1-31.38-55.3z" fill="#f19c7c"/><path d="M82.44 50.38l1.06 4.7.77 4.74.31 2.38.26 2.38.37 4.78v.43l-.31.19q-1.53.94-3.09 1.83l-3.2 1.68 2.72-2.38 2.82-2.22-.29.62-.67-4.75-.27-2.38-.23-2.39-.28-4.79.03-4.82z" fill="#a06653"/><path d="M91.16,79.59c-6.15,6-15.73,5.59-23.62.26" fill="#fff"/><g fill="#352c38"><path d="M102.36 47.86l-3-1.12-1.33-.46-.7-.24c-.23-.08-.49-.13-.73-.2-.48-.16-1-.22-1.47-.36a12.12 12.12 0 0 0-1.46-.18l-.67-.06h-.72a9.76 9.76 0 0 0-1.42.14 2.73 2.73 0 0 0-.69.14l-.69.16a9.73 9.73 0 0 0-1.29.41 8.86 8.86 0 0 0-1.17.4l-.93.37-.9.29a5.88 5.88 0 0 1 .34-.86l.49-1a5.4 5.4 0 0 1 .84-1.13A6.51 6.51 0 0 1 88 43.05a8.91 8.91 0 0 1 1.68-1l1-.38a3.87 3.87 0 0 1 1.07-.24l1.11-.15c.38-.03.74 0 1.12 0a9.62 9.62 0 0 1 2.16.43 9.37 9.37 0 0 1 1 .4 5.58 5.58 0 0 1 .91.47l.81.52.72.57a10.67 10.67 0 0 1 1.16 1.18A9.37 9.37 0 0 1 102 47a4.44 4.44 0 0 1 .36.86zm-29.04-.66l-3.15-.91-1.41-.37-1.51-.34c-.51-.11-1-.15-1.55-.25a13.53 13.53 0 0 0-1.55-.08h-.76c-.25 0-.5 0-.75.08a10.24 10.24 0 0 0-1.47.24 2.94 2.94 0 0 0-.72.19l-.7.21a9.76 9.76 0 0 0-1.32.49 10.11 10.11 0 0 0-1.17.48l-.94.43-.9.36a8.1 8.1 0 0 1 .32-.9l.46-1a5.53 5.53 0 0 1 .8-1.21 6.72 6.72 0 0 1 1.2-1.26l.78-.58a4 4 0 0 1 .89-.53 8.08 8.08 0 0 1 2-.75l1.12-.22c.38-.06.76 0 1.14 0a10.31 10.31 0 0 1 2.23.27 8.67 8.67 0 0 1 1 .33 4.82 4.82 0 0 1 1 .39 8.89 8.89 0 0 1 1.66 1 9.71 9.71 0 0 1 1.3 1.09 9.08 9.08 0 0 1 1.53 2 4.81 4.81 0 0 1 .47.84zm-4.17 12.98s-.07-.28-.23-.74a12.48 12.48 0 0 0-.78-1.83 6.37 6.37 0 0 0-1.68-2 4 4 0 0 0-1.25-.65 2.83 2.83 0 0 0-.71-.17 3.74 3.74 0 0 0-.75-.06h-.73a5.15 5.15 0 0 0-.78.15 3.58 3.58 0 0 0-1.22.57 4.19 4.19 0 0 0-.92 1 5.69 5.69 0 0 0-.58 1.12 10.45 10.45 0 0 0-.53 1.9l-.11.77a6 6 0 0 1-.12-.78 6.8 6.8 0 0 1 .1-2.09 5.07 5.07 0 0 1 .47-1.37 4.12 4.12 0 0 1 1-1.32 4 4 0 0 1 1.67-.95 6 6 0 0 1 .84-.17 5.27 5.27 0 0 1 1-.05 4.16 4.16 0 0 1 .92.09 4 4 0 0 1 .89.24 3.53 3.53 0 0 1 .83.4 4.23 4.23 0 0 1 .71.53 6 6 0 0 1 1.64 2.57 8.28 8.28 0 0 1 .38 2 5.38 5.38 0 0 1-.06.84zm28.92-.47l-.22-.74a11.62 11.62 0 0 0-.79-1.82 6.14 6.14 0 0 0-1.67-2 4.07 4.07 0 0 0-1.26-.65 2.83 2.83 0 0 0-.71-.17 3.64 3.64 0 0 0-.74-.06 5.61 5.61 0 0 0-.73 0 5.36 5.36 0 0 0-.79.14A3.56 3.56 0 0 0 90 55a3.81 3.81 0 0 0-.93 1 7.47 7.47 0 0 0-.63 1 10.73 10.73 0 0 0-.52 1.9 7.41 7.41 0 0 0-.11.77 4.9 4.9 0 0 1-.13-.77 7.48 7.48 0 0 1 .1-2.09 5.93 5.93 0 0 1 .47-1.38 4.39 4.39 0 0 1 1-1.32 4.27 4.27 0 0 1 1.64-.89 5.44 5.44 0 0 1 .84-.17 6.18 6.18 0 0 1 .97-.05 4.05 4.05 0 0 1 .92.1 3.52 3.52 0 0 1 .9.24 3.12 3.12 0 0 1 .82.4 4.12 4.12 0 0 1 .72.52 5.89 5.89 0 0 1 1.63 2.58 7.79 7.79 0 0 1 .39 2 5.92 5.92 0 0 1-.01.87zM62.54 79.52h16l16.67.33s-3.9-7-16.57-6.36-13.77 3.7-16.1 6.03zm-4.33-55.33s13 16.66 31.66 13.66l-4.33-6s11.33 5.34 30.33.34c0 0 1.34-20.67-31-25.34 0 0 15.34 1.34 26 7.67 0 0-31.33-32.67-57 0 0 0-14.66.33-15.33 16.67s3.33 22.33 3.33 22.33 3.34-2.67 4.34 3 0 14.33 3.66 22.33l6-4.33s-7.66-18-6-33c0 0 9.67-2 8.34-17.33z"/><path d="M111.21,29.19s4.33,36.66-6,51.33l-4-5a56.5,56.5,0,0,0,2.66-44Z"/></g></svg>